<svg width="120" height="120" viewBox="0 0 24 24" fill="#facc15" xmlns="http://www.w3.org/2000/svg">
<path d="M12 18a6 6 0 100-12 6 6 0 000 12zm0-16a1 1 0 011 1v2a1 1 0 11-2 0V3a1 1 0 011-1zm0 18a1 1 0 011 1v2a1 1 0 11-2 0v-2a1 1 0 011-1zm10-8a1 1 0 01-1 1h-2a1 1 0 110-2h2a1 1 0 011 1zM5 12a1 1 0 01-1 1H2a1 1 0 110-2h2a1 1 0 011 1zm13.657-6.657a1 1 0 010 1.414L17.414 8a1 1 0 11-1.414-1.414l1.243-1.243a1 1 0 011.414 0zM8 17.414a1 1 0 01-1.414 1.414L5.343 17.586a1 1 0 011.414-1.414L8 17.414zm11.314 0a1 1 0 01-1.414 1.414L16.657 17.586a1 1 0 011.414-1.414l1.243 1.243zM7.414 6.343A1 1 0 006 7.757L4.757 6.514A1 1 0 016.171 5.1L7.414 6.343z"/>
</svg>
